<?xml version="1.0" encoding="utf-8"?>
<!-- Generator: Adobe Illustrator 24.2.1, SVG Export Plug-In . SVG Version: 6.00 Build 0)  -->
<svg version="1.1" id="Ebene_1" xmlns="http://www.w3.org/2000/svg" xmlns:xlink="http://www.w3.org/1999/xlink" x="0px" y="0px"
	 viewBox="0 0 256 256" style="enable-background:new 0 0 256 256;" xml:space="preserve">
<style type="text/css">
	.st0{fill:#207DDE;}
	.st1{fill:#8ECDEC;}
	.st2{font-family:'GTWalsheim-Medium';}
	.st3{font-size:40.9154px;}
	.st4{fill:#FFFFFF;}
</style>
<g>
	<path class="st0" d="M127.95,254c69.53,0,125.89-56.37,125.89-125.89S197.48,2.21,127.95,2.21S2.06,58.58,2.06,128.11
		S58.42,254,127.95,254"/>
</g>
<g>
	<path class="st1" d="M44.85,128.27l-0.24-7.07l4.21-0.14l0.65,18.89l-4.21,0.14l-0.24-7.11l-24.41,0.84l-0.16-4.7L44.85,128.27z"/>
</g>
<g>
	<path class="st1" d="M30.1,139.61c5.26-1.21,10.65,1.63,12.01,7.53c1.37,5.98-2.25,10.88-7.51,12.09
		c-5.26,1.21-10.66-1.63-12.03-7.61C21.21,145.71,24.83,140.81,30.1,139.61z M33.6,154.88c3.19-0.73,5.41-3.5,4.64-6.85
		c-0.75-3.27-3.95-4.8-7.14-4.07c-3.19,0.73-5.41,3.51-4.66,6.78C27.2,154.08,30.41,155.61,33.6,154.88z"/>
</g>
<g>
	<path class="st1" d="M52.4,174.72l-17.03,8.57l-2-3.98l2.38-1.2c-2.36-0.14-4.34-1.62-5.61-4.14c-1.23-2.45-1.22-4.61-0.27-6.27
		c0.86-1.49,2.15-2.46,4.49-3.63l10.12-5.1l2,3.98l-8.81,4.43c-2.92,1.47-4.73,3.43-3.29,6.28c1.4,2.78,4.29,2.97,7.21,1.5
		l8.81-4.43L52.4,174.72z"/>
</g>
<g>
	<path class="st1" d="M59.21,190.47c-0.3-0.65-0.5-0.96-0.92-1.51c-2.34-3-5.34-3.3-9.07-0.38l-6.48,5.07l-2.75-3.51L55,178.39
		l2.75,3.51l-2.42,1.89c1.92-0.41,4.68,0.6,6.24,2.6c0.43,0.55,0.72,1.05,0.86,1.56L59.21,190.47z"/>
</g>
<text transform="matrix(0.7275 0.6861 -0.6861 0.7275 49.2397 201.6193)" class="st1 st2 st3"> </text>
<g>
	<path class="st4" d="M83.64,226.71l-4.06-2.37l8.93-15.3L73.4,220.73l-3.07-1.79l2.75-18.91l-8.93,15.3l-4.06-2.37l14.44-24.73
		l3.89,2.27l-2.84,23.03l18.63-13.8l3.89,2.27L83.64,226.71z"/>
</g>
<g>
	<path class="st4" d="M110.6,234.46l-4.34-1.02l0.61-2.59c-1.62,1.72-4.02,2.29-6.77,1.64c-2.67-0.63-4.31-2.02-4.98-3.82
		c-0.59-1.61-0.5-3.23,0.1-5.78l2.59-11.03l4.34,1.02l-2.25,9.6c-0.75,3.19-0.4,5.83,2.7,6.56c3.03,0.71,5.03-1.38,5.78-4.57
		l2.25-9.6l4.34,1.02L110.6,234.46z M104,203.71c1.79,0.42,2.89,2.19,2.47,3.98c-0.41,1.75-2.18,2.85-3.97,2.43
		c-1.75-0.41-2.85-2.18-2.44-3.94C100.48,204.39,102.25,203.29,104,203.71z M113.12,205.85c1.79,0.42,2.89,2.19,2.47,3.98
		c-0.41,1.75-2.18,2.85-3.98,2.43c-1.75-0.41-2.85-2.18-2.44-3.94C109.6,206.54,111.37,205.44,113.12,205.85z"/>
</g>
<g>
	<path class="st4" d="M118.61,216.63l4.46-0.05l0.03,2.66c1.17-2.06,3.36-3.19,6.19-3.21c2.74-0.03,4.67,0.93,5.75,2.52
		c0.96,1.42,1.26,3.01,1.29,5.63l0.12,11.33l-4.46,0.05l-0.1-9.86c-0.03-3.27-1-5.76-4.19-5.72c-3.11,0.03-4.56,2.54-4.52,5.81
		l0.1,9.86l-4.46,0.05L118.61,216.63z"/>
</g>
<g>
	<path class="st4" d="M154.03,219.97c-0.71-1.98-2.21-3.06-5.16-2.38c-3.35,0.77-4.36,3.89-3.63,7.04c0.73,3.19,2.87,5.55,6.62,4.7
		c2.55-0.58,3.33-1.94,3.46-3.94l4.35-1c0.29,4-1.86,7.64-7.24,8.88c-6.06,1.39-10.37-2.58-11.53-7.64
		c-1.15-5.02,0.99-10.51,7.01-11.89c6.06-1.39,9.37,1.71,10.47,5.24L154.03,219.97z"/>
</g>
<g>
	<path class="st4" d="M154.8,202.89l3.98-2l5.5,10.92c0.14-2.36,1.62-4.34,4.14-5.61c2.45-1.23,4.61-1.22,6.27-0.27
		c1.48,0.86,2.46,2.15,3.63,4.49l5.1,10.12l-3.98,2l-4.43-8.81c-1.47-2.92-3.43-4.73-6.28-3.29c-2.78,1.4-2.97,4.29-1.5,7.21
		l4.43,8.81l-3.98,2L154.8,202.89z"/>
</g>
<g>
	<path class="st4" d="M187.34,207.85c1.77,2.09,4.22,2.94,7,0.65c1.96-1.61,1.96-3.09,1.54-4.5l3.47-2.86
		c1.61,2.92,1.11,7.14-2.65,10.24c-4.96,4.08-10.43,2.33-13.73-1.68c-3.64-4.42-3.75-9.9,0.89-13.72c3.82-3.15,9.19-2.74,12.28,1.02
		c0.42,0.51,0.99,1.2,1.61,2.28L187.34,207.85z M185.27,205.27l7.2-5.93c-1.69-2.05-4.24-2.12-6.33-0.41
		C184.12,200.59,183.47,203.09,185.27,205.27z"/>
</g>
<g>
	<path class="st4" d="M192.92,188.67l2.72-3.54l2.11,1.62c-0.9-2.19-0.43-4.61,1.29-6.85c1.67-2.17,3.62-3.1,5.53-2.97
		c1.71,0.13,3.15,0.87,5.23,2.46l8.99,6.9l-2.72,3.54l-7.82-6.01c-2.6-1.99-5.15-2.77-7.09-0.24c-1.89,2.47-0.81,5.15,1.78,7.15
		l7.82,6l-2.72,3.54L192.92,188.67z"/>
</g>
<g>
	<path class="st4" d="M228.44,126.3c-0.88-2.13-2.77-3.04-5.07-3.08c-2.5-0.04-3.8,1.66-4.95,3.5c-2.13,3.43-4.04,7.02-6.45,10.25
		c-2.21,2.96-3.48,2.94-5.99,0.29c-3.05-3.23-5.77-6.76-8.82-10c-7.65-8.13-13.57-10.67-24.58-6.03c-3.03,1.28-6.09,2.5-9.28,3.81
		c-0.16-5.28-0.32-10.33-0.46-15.39c-0.13-5.02-0.24-10.04-0.35-14.79c7.65-2.64,15.01-5.03,22.24-7.74
		c2.46-0.92,4.76-2.43,6.88-4.01c10.14-7.55,10.62-19.47,6.78-29.66c-0.97-2.57-3.61-3.74-6.33-3.11c-2.57,0.59-4.39,2.99-4.12,5.71
		c0.15,1.52,0.6,3,0.97,4.49c1.79,7.32,0.03,12.67-6.73,15.88c-6.23,2.96-13.07,4.67-20.04,7.08c-0.09-3.41,0-6.39-0.28-9.3
		c12.15-5.93,18.36-19.8,13.98-32.54c-4.76-13.81-20.16-21.03-34.39-16.13c-14.24,4.9-21.92,20.08-17.17,33.89
		c3.89,11.29,14.89,18.17,26.55,17.63c0.04,2.27,0.1,4.49,0.35,6.69c0.29,2.56-0.68,3.55-3.13,4.31c-8.5,2.64-16.52,6.27-23.38,12.1
		c-12.43,10.56-9.84,24.98,0.13,34.22c2.22,2.06,5.45,1.82,7.56-0.2c2.12-2.04,2.27-4.94,0.35-7.36c-0.73-0.92-1.52-1.8-2.26-2.72
		c-4.55-5.7-4.11-11.31,1.55-16.05c5.56-4.65,12.11-7.5,19.3-9.67c0.07,1.07,0.15,1.95,0.18,2.83c0.38,13.4,0.82,26.79,1.1,40.19
		c0.14,6.51,0.2,13.04-0.12,19.55c-0.31,6.22-2.07,7.6-8.3,6.64c-4.92-0.76-9.72-2.19-14.62-3.13c-4.43-0.85-8.89-1.8-13.39-2.04
		c-6.11-0.32-10.72,3.62-11.79,9.54c-1.24,6.8,0.65,13.13,3.18,19.27c1.02,2.46,3.81,3.38,6.3,2.64c2.73-0.81,4.27-2.96,3.88-5.85
		c-0.26-1.87-0.99-3.66-1.36-5.51c-0.59-2.96-2.01-6.74-1.04-8.67c1.9-2.86,11.38,1.32,15.18,2.06c5.35,1.46,10.49,2.33,15.81,2.64
		c6.28,0.36,12.09-1.84,14.82-7.85c1.77-3.89,2.39-8.34,3.02-12.6c0.82-5.47,1.07-10.99,1.7-16.49c0.52-4.57,3.01-7.57,7.59-9.21
		c8.98-3.21,9.21-4.75,16.98,3.98c3.07,3.45,6,7.08,9.43,10.16c5.22,4.7,11.64,5,16.97,0.76c5.81-4.61,9.34-10.9,11.98-17.61
		C229.18,128.71,228.86,127.32,228.44,126.3"/>
	<path class="st0" d="M150.78,67.54c-2.04,0-4.07-0.45-5.96-1.33c-3.35-1.57-5.86-4.34-7.05-7.8c-0.39-1.15,0.22-2.4,1.36-2.79
		c1.16-0.39,2.4,0.22,2.79,1.36c0.8,2.32,2.49,4.19,4.76,5.25c2.29,1.07,4.9,1.21,7.33,0.37c2.44-0.84,4.41-2.54,5.56-4.8
		c1.13-2.24,1.31-4.75,0.51-7.07c-0.4-1.15,0.21-2.4,1.36-2.79c1.14-0.4,2.4,0.21,2.79,1.36c1.19,3.46,0.93,7.18-0.75,10.49
		c-1.66,3.28-4.52,5.76-8.05,6.97C153.93,67.28,152.35,67.54,150.78,67.54z"/>
	<path class="st1" d="M103.65,43.2c-5.59-2.7-9.09-4.44-12.38-4.26c-3.29,0.19-5.84,2.55-5.69,5.28c0.16,2.73,2.95,4.79,6.25,4.6
		C95.12,48.64,98.4,46.52,103.65,43.2"/>
	<path class="st1" d="M77.45,53.51c-7.44-3.3-12.1-5.43-16.49-5.18c-4.4,0.25-7.81,3.18-7.62,6.55c0.19,3.37,3.91,5.89,8.31,5.64
		C66.04,60.27,70.43,57.63,77.45,53.51"/>
	<path class="st1" d="M117.48,66.92c-8.56-3.97-13.91-6.52-18.96-6.23c-5.05,0.28-8.96,3.78-8.73,7.81
		c0.23,4.03,4.51,7.06,9.55,6.77S109.43,71.82,117.48,66.92"/>
</g>
</svg>
