<?xml version="1.0" encoding="utf-8"?>
<!-- Generator: Adobe Illustrator 24.1.3, SVG Export Plug-In . SVG Version: 6.00 Build 0)  -->
<svg version="1.1" id="Ebene_1" xmlns="http://www.w3.org/2000/svg" xmlns:xlink="http://www.w3.org/1999/xlink" x="0px" y="0px"
	 viewBox="0 0 256 256" style="enable-background:new 0 0 256 256;" xml:space="preserve">
<style type="text/css">
	.st0{fill:#207DDE;}
	.st1{fill:#8ECDEC;}
	.st2{font-family:'GTWalsheim-Medium';}
	.st3{font-size:40.9154px;}
	.st4{fill:#FFFFFF;}
</style>
<g>
	<path class="st0" d="M127.9,254c69.5,0,125.9-56.4,125.9-125.9S197.5,2.2,127.9,2.2S2.1,58.6,2.1,128.1S58.4,254,127.9,254"/>
</g>
<text transform="matrix(0.7275 0.6861 -0.6861 0.7275 49.2399 201.6194)" class="st1 st2 st3"> </text>
<g>
	<path class="st4" d="M228.4,126.3c-0.9-2.1-2.8-3-5.1-3.1c-2.5,0-3.8,1.7-4.9,3.5c-2.1,3.4-4,7-6.4,10.2c-2.2,3-3.5,2.9-6,0.3
		c-3.1-3.2-5.8-6.8-8.8-10c-7.6-8.1-13.6-10.7-24.6-6c-3,1.3-6.1,2.5-9.3,3.8c-0.2-5.3-0.3-10.3-0.5-15.4c-0.1-5-0.2-10-0.4-14.8
		c7.6-2.6,15-5,22.2-7.7c2.5-0.9,4.8-2.4,6.9-4c10.1-7.6,10.6-19.5,6.8-29.7c-1-2.6-3.6-3.7-6.3-3.1c-2.6,0.6-4.4,3-4.1,5.7
		c0.1,1.5,0.6,3,1,4.5c1.8,7.3,0,12.7-6.7,15.9c-6.2,3-13.1,4.7-20,7.1c-0.1-3.4,0-6.4-0.3-9.3c12.1-5.9,18.4-19.8,14-32.5
		c-4.8-13.8-20.2-21-34.4-16.1c-14.2,4.9-21.9,20.1-17.2,33.9c3.9,11.3,14.9,18.2,26.6,17.6c0,2.3,0.1,4.5,0.4,6.7
		c0.3,2.6-0.7,3.6-3.1,4.3c-8.5,2.6-16.5,6.3-23.4,12.1c-12.4,10.6-9.8,25,0.1,34.2c2.2,2.1,5.4,1.8,7.6-0.2c2.1-2,2.3-4.9,0.4-7.4
		c-0.7-0.9-1.5-1.8-2.3-2.7c-4.6-5.7-4.1-11.3,1.6-16.1c5.6-4.7,12.1-7.5,19.3-9.7c0.1,1.1,0.1,1.9,0.2,2.8
		c0.4,13.4,0.8,26.8,1.1,40.2c0.1,6.5,0.2,13-0.1,19.6c-0.3,6.2-2.1,7.6-8.3,6.6c-4.9-0.8-9.7-2.2-14.6-3.1c-4.4-0.9-8.9-1.8-13.4-2
		c-6.1-0.3-10.7,3.6-11.8,9.5c-1.2,6.8,0.7,13.1,3.2,19.3c1,2.5,3.8,3.4,6.3,2.6c2.7-0.8,4.3-3,3.9-5.9c-0.3-1.9-1-3.7-1.4-5.5
		c-0.6-3-2-6.7-1-8.7c1.9-2.9,11.4,1.3,15.2,2.1c5.4,1.5,10.5,2.3,15.8,2.6c6.3,0.4,12.1-1.8,14.8-7.9c1.8-3.9,2.4-8.3,3-12.6
		c0.8-5.5,1.1-11,1.7-16.5c0.5-4.6,3-7.6,7.6-9.2c9-3.2,9.2-4.8,17,4c3.1,3.4,6,7.1,9.4,10.2c5.2,4.7,11.6,5,17,0.8
		c5.8-4.6,9.3-10.9,12-17.6C229.2,128.7,228.9,127.3,228.4,126.3"/>
	<path class="st0" d="M150.8,67.5c-2,0-4.1-0.4-6-1.3c-3.4-1.6-5.9-4.3-7.1-7.8c-0.4-1.2,0.2-2.4,1.4-2.8c1.2-0.4,2.4,0.2,2.8,1.4
		c0.8,2.3,2.5,4.2,4.8,5.2c2.3,1.1,4.9,1.2,7.3,0.4c2.4-0.8,4.4-2.5,5.6-4.8c1.1-2.2,1.3-4.8,0.5-7.1c-0.4-1.2,0.2-2.4,1.4-2.8
		c1.1-0.4,2.4,0.2,2.8,1.4c1.2,3.5,0.9,7.2-0.8,10.5c-1.7,3.3-4.5,5.8-8.1,7C153.9,67.3,152.4,67.5,150.8,67.5z"/>
	<path class="st1" d="M103.7,43.2c-5.6-2.7-9.1-4.4-12.4-4.3c-3.3,0.2-5.8,2.5-5.7,5.3c0.2,2.7,2.9,4.8,6.2,4.6
		C95.1,48.6,98.4,46.5,103.7,43.2"/>
	<path class="st1" d="M77.4,53.5C70,50.2,65.3,48.1,61,48.3c-4.4,0.2-7.8,3.2-7.6,6.5c0.2,3.4,3.9,5.9,8.3,5.6
		C66,60.3,70.4,57.6,77.4,53.5"/>
	<path class="st1" d="M117.5,66.9c-8.6-4-13.9-6.5-19-6.2c-5.1,0.3-9,3.8-8.7,7.8s4.5,7.1,9.6,6.8S109.4,71.8,117.5,66.9"/>
</g>
</svg>
