<?xml version="1.0" encoding="utf-8"?>
<!-- Generator: Adobe Illustrator 24.1.3, SVG Export Plug-In . SVG Version: 6.00 Build 0)  -->
<svg version="1.1" id="Ebene_1" xmlns="http://www.w3.org/2000/svg" xmlns:xlink="http://www.w3.org/1999/xlink" x="0px" y="0px"
	 viewBox="0 0 155 118" style="enable-background:new 0 0 155 118;" xml:space="preserve">
<style type="text/css">
	.st0{fill:#FFFFFF;}
</style>
<g>
	<g>
		<path class="st0" d="M20.7,107.4V97.3l-3.6,8h-1.2l-3.7-8v10.1h-1.4V94.1h1.4l4.3,9.4l4.2-9.4h1.4v13.3H20.7z"/>
		<path class="st0" d="M25.9,107.4V94.1h1.4v13.3H25.9z"/>
		<path class="st0" d="M35.3,107.5c-1.3,0-2.5-0.5-3.4-1.4c-1.2-1.2-1.2-2.6-1.2-5.4s0-4.1,1.2-5.4c0.9-0.9,2.1-1.4,3.4-1.4
			c2.4,0,4.2,1.5,4.6,3.9h-1.5c-0.4-1.6-1.5-2.7-3.1-2.7c-0.9,0-1.7,0.3-2.3,0.9c-0.8,0.9-0.9,1.8-0.9,4.5c0,2.8,0.1,3.7,0.9,4.5
			c0.6,0.6,1.4,0.9,2.3,0.9c1.7,0,2.8-1.1,3.2-2.7h1.4C39.5,106.1,37.7,107.5,35.3,107.5z"/>
		<path class="st0" d="M50.7,107.4v-6h-6.3v6H43V94.1h1.4v5.9h6.3v-5.9h1.4v13.3H50.7z"/>
		<path class="st0" d="M63.7,107.4l-1.1-3h-5.8l-1.1,3h-1.5l4.9-13.3h1.2l4.9,13.3H63.7z M59.8,96.2l-2.5,7h5L59.8,96.2z"/>
		<path class="st0" d="M67.4,107.4V94.1h8.2v1.3h-6.8v4.7h5.8v1.3h-5.8v4.8h6.8v1.3L67.4,107.4L67.4,107.4z"/>
		<path class="st0" d="M78.5,107.4V94.1h1.4v12h6.8v1.3H78.5z"/>
		<path class="st0" d="M96.4,107.4l-0.8-2.3h-4.7l-0.8,2.3h-2.7l4.8-13.3h2l4.8,13.3H96.4z M93.3,98l-1.7,4.8h3.3L93.3,98z"/>
		<path class="st0" d="M107.7,107.4l-2.6-5.3h-1.9v5.3h-2.6V94.1h5.2c2.7,0,4.3,1.8,4.3,4.1c0,1.9-1.1,3-2.4,3.5l3,5.7L107.7,107.4
			L107.7,107.4z M105.7,96.4h-2.4v3.5h2.4c1.1,0,1.9-0.7,1.9-1.8S106.9,96.4,105.7,96.4z"/>
		<path class="st0" d="M112.9,107.4V94.1h8.7v2.3h-6.1v3.1h5.2v2.3h-5.2v3.2h6.1v2.3h-8.7V107.4z"/>
		<path class="st0" d="M132,107.4l-5.2-8.1v8.1h-2.6V94.1h2.3l5.2,8.1v-8.1h2.6v13.3H132z"/>
		<path class="st0" d="M145.7,106.1c-0.9,0.9-2.1,1.3-3.5,1.3h-4.8V94.1h4.8c1.4,0,2.6,0.4,3.5,1.3c1.5,1.5,1.3,3.3,1.3,5.3
			C147,102.7,147.2,104.6,145.7,106.1z M143.9,97.3c-0.4-0.5-1-0.8-1.9-0.8h-2v8.6h2c0.9,0,1.5-0.3,1.9-0.8c0.5-0.6,0.6-1.5,0.6-3.6
			C144.4,98.7,144.3,97.9,143.9,97.3z"/>
	</g>
	<polygon class="st0" points="87.1,10.2 70,39.9 61.3,24.8 29,80.8 35.1,80.8 35.1,80.8 52.9,80.8 52.9,75.3 38.2,75.3 61.3,35.8 
		72,54 78.2,54 73.2,45.4 87.1,21.2 118.4,75.3 87.4,75.3 90.5,69.7 84.1,69.7 76.2,83.5 82.7,83.5 84.2,80.8 127.9,80.8 	"/>
</g>
</svg>
