<?xml version="1.0" encoding="utf-8"?>
<!-- Generator: Adobe Illustrator 24.1.3, SVG Export Plug-In . SVG Version: 6.00 Build 0)  -->
<svg version="1.1" id="Ebene_1" xmlns="http://www.w3.org/2000/svg" xmlns:xlink="http://www.w3.org/1999/xlink" x="0px" y="0px"
	 viewBox="0 0 205.1 95.5" style="enable-background:new 0 0 205.1 95.5;" xml:space="preserve">
<style type="text/css">
	.st0{fill:#FFFFFF;}
</style>
<g>
	<polygon class="st0" points="107.2,34.3 110.9,16.8 116,16.8 118.3,6 102.4,6 84.4,91 95.1,91 104.9,45.1 110,45.1 112.3,34.3 	"/>
	<path class="st0" d="M47.5,91l12.1-56.7H32.9l-2.3,10.8h15.9l-1.1,5.1H29.6L20.9,91H47.5L47.5,91z M39,80.3h-5.1L38,61h5.1L39,80.3
		L39,80.3z"/>
	<polygon class="st0" points="79.3,91 91.3,34.3 80.5,34.3 70.8,80.3 65.7,80.3 75.4,34.3 64.7,34.3 52.6,91 	"/>
	<polygon class="st0" points="200.3,45.1 202.6,34.3 181,34.3 169,91 179.8,91 189.5,45.1 	"/>
	<path class="st0" d="M132.1,91l12.1-56.7h-15.9l6-28.3h-10.8l-18.1,85H132.1L132.1,91z M123.7,80.3h-5.1l7.5-35.1h5.1L123.7,80.3
		L123.7,80.3z"/>
	<path class="st0" d="M163.9,91L176,34.3h-26.6l-2.3,10.8H163l-1.1,5.1H146L137.3,91L163.9,91L163.9,91z M155.4,80.3h-5.1l4.1-19.3
		h5.1L155.4,80.3L155.4,80.3z"/>
	<polygon class="st0" points="33.8,6 23.1,6 5,91 15.8,91 	"/>
</g>
</svg>
